<svg width="40" height="40" viewBox="0 0 40 40" fill="none" xmlns="http://www.w3.org/2000/svg">
<g id="calendar(1) 1">
<g id="Group">
<path id="Vector" d="M24.6875 19.1248C23.25 20.5623 21.875 21.9373 20.4375 23.3748C19.5625 22.4998 18.625 21.5623 17.75 20.6873C16.625 19.5623 14.8125 21.3123 16 22.4373C17.1875 23.6248 18.375 24.8123 19.5625 25.9998C20.0625 26.4998 20.875 26.4998 21.3125 25.9998L26.4375 20.8748C27.625 19.7498 25.875 17.9998 24.6875 19.1248Z" fill="white"/>
<path id="Vector_2" d="M32.2498 5.5C32.2498 5.375 32.2498 5.25 32.2498 5.125C32.2498 4.5 31.6873 3.875 30.9998 3.875C30.3123 3.875 29.7498 4.4375 29.7498 5.125V5.5H14.3123V5.4375C14.3123 5.3125 14.3123 5.1875 14.3123 5.0625C14.3123 4.4375 13.7498 3.8125 13.0623 3.8125C12.3748 3.8125 11.8123 4.375 11.8123 5.0625V5.5625C8.93734 5.5625 6.56234 7.9375 6.56234 10.8125V15.625C6.49984 15.8125 6.43734 15.9375 6.43734 16.125C6.06234 18.8125 5.43734 21.5 4.56234 24.0625C4.12484 25.25 3.62484 26.5 3.06234 27.625C2.56234 28.6875 2.62484 29.875 3.24984 30.8125C3.87484 31.75 4.87484 32.3125 5.99984 32.3125H6.68734C7.24984 34.625 9.31234 36.3125 11.8123 36.3125H32.0623C34.9373 36.3125 37.3123 33.9375 37.3123 31.0625V10.75C37.3123 7.875 35.0623 5.625 32.2498 5.5ZM11.7498 8V8.25C11.7498 8.875 12.3123 9.5 12.9998 9.5C13.6873 9.5 14.2498 8.9375 14.2498 8.25C14.2498 8.1875 14.2498 8.0625 14.2498 8H29.7498V8.375C29.7498 9 30.3123 9.625 30.9998 9.625C31.6873 9.625 32.2498 9.0625 32.2498 8.375C32.2498 8.25 32.2498 8.125 32.2498 8C33.6873 8.125 34.8123 9.3125 34.8123 10.75V13.75C34.7498 13.75 34.6248 13.75 34.5623 13.75H8.99984V10.75C8.99984 9.1875 10.2498 8 11.7498 8ZM5.31234 29.4375C5.18734 29.1875 5.12484 28.9375 5.24984 28.6875C5.81234 27.4375 6.37484 26.1875 6.81234 24.875C7.74984 22.125 8.43734 19.3125 8.81234 16.4375C8.81234 16.375 8.87484 16.3125 8.93734 16.3125H34.4998C34.4998 16.3125 34.5623 16.3125 34.6248 16.375C34.6248 16.375 34.6873 16.4375 34.6873 16.5C34.3748 19.3125 33.7498 22.0625 32.8748 24.6875C32.4373 26 31.8748 27.3125 31.2498 28.625C30.8748 29.375 30.0623 29.875 29.1873 29.875H5.99984C5.68734 29.75 5.43734 29.625 5.31234 29.4375ZM32.0623 33.75H11.7498C10.6873 33.75 9.81234 33.125 9.31234 32.25H29.1248C30.9373 32.25 32.6248 31.1875 33.4373 29.5625C33.9373 28.5625 34.3748 27.5 34.7498 26.4375V31C34.8123 32.5 33.5623 33.75 32.0623 33.75Z" fill="white"/>
</g>
</g>
</svg>
