<svg width="110" height="44" viewBox="0 0 110 44" fill="none" xmlns="http://www.w3.org/2000/svg">
<g id="Logo" clip-path="url(#clip0_33_1632)">
<g id="g2993">
<g id="g3045">
<path id="path3047" d="M91.5047 23.4889C91.4161 28.3842 92.4722 30.9771 96.5029 30.9771C100.527 30.9771 101.105 26.5602 101.105 23.1991C101.105 19.8358 100.341 16.5708 96.113 16.5708C93.5194 16.5708 91.6044 18.5885 91.5047 23.4889ZM83.3501 43.9453V10.809H91.6044C91.6044 10.809 91.6044 11.2889 91.6044 12.1532C91.6044 13.9461 92.3267 13.2068 92.9086 12.5081C93.0061 12.3913 94.8457 10.137 98.9888 10.137C103.119 10.137 109.545 13.0175 109.545 23.1991C109.545 31.0747 105.711 36.8364 99.0907 36.8364C95.4424 36.8364 93.3333 35.3984 92.851 34.818C92.368 34.2458 91.6975 34.1459 91.6975 34.818C91.6975 35.4916 91.6975 43.9453 91.6975 43.9453H83.3501Z" fill="black"/>
</g>
<g id="g3049">
<path id="path3051" d="M19.5525 0.0541954H28.4752C28.4752 0.0541954 28.4752 19.4533 28.4752 23.4887C28.4752 27.5196 26.7463 35.9741 14.3726 35.9741C1.9974 35.9741 0.654785 28.0941 0.654785 23.6794V19.3579H9.28944C9.28944 19.3579 9.28944 20.9904 9.28944 23.5818C9.28944 26.1748 11.0168 28.5747 14.2766 28.5747C17.5378 28.5747 19.5525 26.7507 19.5525 23.6794C19.5525 20.606 19.5525 0.0541954 19.5525 0.0541954Z" fill="black"/>
</g>
<g id="g3053">
<path id="path3055" d="M47.1334 19.9341C47.1334 17.5305 45.793 15.2259 42.723 15.2259C39.749 15.2259 38.6929 17.3368 38.6929 19.9341H47.1334ZM41.8626 9.84861C48.8696 9.84861 55.0066 12.5369 55.0066 24.927H38.4116C38.4116 28.8647 40.0407 30.498 42.9187 30.498C45.7974 30.498 46.756 28.1912 46.756 28.1912H54.9128C54.9128 31.746 50.0195 36.5481 42.6307 36.4527C34.191 36.4527 30.0649 30.2096 30.0649 23.7743C30.0649 17.3368 33.708 9.84861 41.8626 9.84861Z" fill="black"/>
</g>
<g id="g3057">
<path id="path3059" d="M73.6629 19.9341C73.6629 17.5305 72.3211 15.2259 69.2511 15.2259C66.2786 15.2259 65.2203 17.3368 65.2203 19.9341H73.6629ZM68.3922 9.84861C75.3984 9.84861 81.534 12.5369 81.534 24.927H64.9397C64.9397 28.8647 66.5703 30.498 69.4505 30.498C72.3262 30.498 73.2863 28.1912 73.2863 28.1912H81.4431C81.4431 31.746 76.549 36.5481 69.1625 36.4527C60.7183 36.4527 56.5923 30.2096 56.5923 23.7743C56.5923 17.3368 60.2398 9.84861 68.3922 9.84861Z" fill="black"/>
</g>
<g id="g3061">
<path id="path3063" d="M104.082 39.9726C104.082 38.6603 105.149 37.5941 106.464 37.5941C107.775 37.5941 108.84 38.6603 108.84 39.9726C108.84 41.2828 107.775 42.3556 106.464 42.3556C105.149 42.3556 104.082 41.2828 104.082 39.9726ZM103.807 39.9726C103.807 41.441 104.995 42.6328 106.464 42.6328C107.924 42.6328 109.118 41.441 109.118 39.9726C109.118 38.5043 107.924 37.3124 106.464 37.3124C104.995 37.3124 103.807 38.5043 103.807 39.9726Z" fill="black"/>
</g>
<g id="g3065">
<path id="path3067" d="M107.531 41.333L106.979 40.0288C107.154 39.9682 107.213 39.9253 107.306 39.8255C107.427 39.6953 107.503 39.4898 107.503 39.3035C107.503 38.8333 107.142 38.5131 106.618 38.5131H105.51V41.333H105.839V40.1116H106.639L107.165 41.333H107.531ZM105.83 39.8255V38.82H106.611C106.938 38.82 107.145 39.0063 107.145 39.2946C107.145 39.6221 106.925 39.8255 106.566 39.8255H105.83Z" fill="black"/>
</g>
</g>
</g>
<defs>
<clipPath id="clip0_33_1632">
<rect width="109" height="44" fill="white" transform="translate(0.600098)"/>
</clipPath>
</defs>
</svg>
