<svg width="56" height="54" viewBox="0 0 56 54" fill="none" xmlns="http://www.w3.org/2000/svg">
<g id="Logo">
<g id="layer1">
<path id="path3524" fill-rule="evenodd" clip-rule="evenodd" d="M40.0246 4.25849C48.3427 8.55351 54.0249 17.1166 54.0249 26.9871C54.0249 36.8576 48.3427 45.4477 40.0246 49.7164V46.7815C43.2057 44.9131 45.8966 42.2988 47.8546 39.2046L40.0246 36.0841V31.3354L48.6149 37.9248C50.4093 34.6699 51.4151 30.9615 51.4151 26.9864C51.4151 18.6097 46.8474 11.2474 40.0246 7.19204V4.25849ZM27.9274 1.35059C32.2772 1.35059 36.3816 2.39144 40.0246 4.25849V7.19339C36.6806 5.21834 32.766 4.04519 28.6342 3.91154L31.6241 24.9067L40.0246 31.3361V36.0847L27.8724 31.2558L15.802 36.1111V31.3888L24.2568 24.9061L27.22 3.91086C23.0331 4.04451 19.146 5.21834 15.802 7.19204V4.25849C19.4182 2.39144 23.5501 1.35059 27.9274 1.35059ZM40.0246 49.7164C36.3816 51.5834 32.2765 52.6499 27.9274 52.6499C23.5508 52.6499 19.4189 51.5834 15.8027 49.7427V46.7815C19.3371 48.8881 23.4958 50.089 27.9274 50.089C32.3315 50.089 36.4641 48.8881 40.0246 46.7815V49.7164ZM15.8027 49.7427C7.4564 45.4477 1.7749 36.8576 1.7749 26.9871C1.7749 17.1166 7.4564 8.55351 15.8027 4.25849V7.19339C8.95171 11.2481 4.38465 18.584 4.38465 26.9871C4.38465 30.9615 5.41797 34.7239 7.21234 37.9781L15.8027 31.3888V36.1111L8.00022 39.2579C9.95753 42.3271 12.6216 44.9137 15.8027 46.7815V49.7427Z" fill="black"/>
</g>
</g>
</svg>
