<svg width="47" height="51" viewBox="0 0 47 51" fill="none" xmlns="http://www.w3.org/2000/svg">
<g id="Group">
<path id="Vector" fill-rule="evenodd" clip-rule="evenodd" d="M33.9319 46.7214C30.6319 46.5999 21.2796 45.3074 11.485 35.5151C1.6927 25.7205 0.402495 16.3705 0.278745 13.0682C0.0954114 8.03575 3.94999 3.14762 8.4027 1.23866C8.9389 1.00713 9.52608 0.918978 10.1066 0.982858C10.6872 1.04674 11.2411 1.26046 11.7142 1.60304C15.3808 4.27512 17.9108 8.31762 20.0833 11.4962C20.5613 12.1945 20.7657 13.0443 20.6575 13.8836C20.5493 14.7229 20.1361 15.4931 19.4967 16.0474L15.0256 19.368C14.8096 19.524 14.6576 19.7531 14.5977 20.0127C14.5379 20.2724 14.5743 20.5449 14.7002 20.7797C15.7131 22.6199 17.5144 25.3607 19.5769 27.4232C21.6394 29.4857 24.5108 31.4062 26.4794 32.5337C26.7262 32.6722 27.0167 32.7109 27.2912 32.6419C27.5657 32.5728 27.8033 32.4013 27.9552 32.1624L30.8656 27.7326C31.4007 27.0219 32.19 26.5457 33.0683 26.4039C33.9466 26.262 34.8457 26.4656 35.5773 26.9718C38.8017 29.2039 42.5646 31.6903 45.3192 35.2172C45.6896 35.6936 45.9252 36.2608 46.0014 36.8595C46.0776 37.4582 45.9915 38.0663 45.7523 38.6203C43.8342 43.096 38.9804 46.907 33.9319 46.7214Z" fill="#605FFA"/>
</g>
</svg>
