<svg width="82" height="54" viewBox="0 0 82 54" fill="none" xmlns="http://www.w3.org/2000/svg">
<g id="Logo" clip-path="url(#clip0_33_1623)">
<path id="Vector" d="M40.9999 0.373047C18.5673 0.373047 0.378906 12.2937 0.378906 26.9944C0.378906 41.7006 18.5673 53.6267 40.9999 53.6267C63.4324 53.6267 81.6208 41.706 81.6208 26.9944C81.6208 12.2829 63.4324 0.373047 40.9999 0.373047ZM40.9999 42.1982C37.6633 42.1982 34.9406 35.5401 34.7698 27.1621C36.7771 27.3406 38.8645 27.438 40.9999 27.438C43.1353 27.438 45.2227 27.3406 47.23 27.1621C47.0591 35.5347 44.3365 42.1982 40.9999 42.1982ZM35.1809 20.5095C36.0884 14.587 38.352 10.3845 40.9999 10.3845C43.6478 10.3845 45.9113 14.587 46.8189 20.5095C44.9557 20.6771 43.0125 20.7691 40.9999 20.7691C38.9872 20.7691 37.044 20.6771 35.1809 20.5095ZM40.9999 4.22401C36.6436 4.22401 32.928 10.8334 31.556 20.0605C23.2973 18.7571 17.5316 15.7823 17.5316 12.3262C17.5316 7.66391 28.0379 3.88326 40.9999 3.88326C53.9619 3.88326 64.4681 7.66391 64.4681 12.3262C64.4681 15.7823 58.7025 18.7571 50.4438 20.0605C49.0718 10.8334 45.3561 4.22401 40.9999 4.22401ZM6.20325 25.9993C6.20325 21.4884 7.91693 17.2535 10.9012 13.6188C10.8691 13.873 10.8478 14.1327 10.8478 14.3923C10.8478 20.0768 19.2613 24.9229 31.0008 26.7078C30.9901 27.1188 30.9901 27.5353 30.9901 27.9518C30.9901 38.5473 33.921 47.5203 37.9729 50.5654C20.1689 49.4782 6.20325 38.8935 6.20325 25.9993ZM44.0268 50.5654C48.0788 47.5203 51.0096 38.5473 51.0096 27.9518C51.0096 27.5299 51.0043 27.1188 50.999 26.7078C62.7331 24.9229 71.152 20.0822 71.152 14.3923C71.152 14.1327 71.1306 13.873 71.0986 13.6188C74.0828 17.2643 75.7965 21.4884 75.7965 25.9993C75.7965 38.8935 61.8309 49.4782 44.0268 50.5654Z" fill="black"/>
</g>
<defs>
<clipPath id="clip0_33_1623">
<rect width="82" height="54" fill="white"/>
</clipPath>
</defs>
</svg>
