<svg width="159" height="36" viewBox="0 0 159 36" fill="none" xmlns="http://www.w3.org/2000/svg">
<path d="M1.0449 12.4768C0.95557 3.16091 0.977902 2.12847 1.31289 1.60025C1.6702 1.04802 1.75953 1.02401 4.6404 1.02401C7.11928 1.02401 7.65525 1.09604 7.99024 1.45619C8.34755 1.84035 8.39222 2.56065 8.36988 11.7085C8.36988 19.6798 8.43688 21.7927 8.68254 22.7531C8.88353 23.4254 9.39717 24.4338 9.86615 25.0101C10.3351 25.6103 11.2061 26.3306 11.8314 26.6427C12.613 27.0269 13.35 27.195 14.2879 27.195C15.0919 27.195 15.9852 27.0029 16.5212 26.7628C17.0125 26.5227 17.8388 25.8984 18.3747 25.3702C19 24.77 19.4914 24.0016 19.7817 23.1853C20.1837 22.0088 20.206 21.1925 20.206 11.9006C20.206 2.72872 20.2507 1.81634 20.608 1.43218C20.9206 1.07203 21.3896 1 23.7792 1C26.1687 1 26.6377 1.07203 26.9727 1.43218C27.33 1.84035 27.3523 2.60867 27.2407 23.2333L26.6824 24.914C26.3697 25.8504 25.6104 27.3871 25.0074 28.3715C24.3821 29.3559 23.3548 30.6524 22.7072 31.2527C22.0596 31.8529 21.0546 32.6453 20.474 33.0294C19.8933 33.3896 18.7321 33.9178 17.8611 34.2059C16.7222 34.5901 15.7172 34.7341 14.1763 34.7341C12.613 34.7341 11.6527 34.6141 10.4915 34.2059C9.62049 33.9178 8.28056 33.2935 7.49893 32.7893C6.7173 32.2851 5.46669 31.1566 4.70739 30.2923C3.97043 29.4279 3.03247 28.0353 2.63049 27.171C2.22851 26.3306 1.7372 24.986 1.53621 24.1937C1.20122 22.9452 1.13423 21.3125 1.0449 12.4768Z" fill="white"/>
<path d="M30.6798 11.8525C30.6798 2.63268 30.7022 1.74431 31.0595 1.38416C31.3945 1.02401 32.1984 1 45.9998 1.14406L47.7864 1.81634C48.769 2.2005 50.1312 2.84877 50.8012 3.25695C51.4712 3.68913 52.5878 4.52948 53.2578 5.12973C53.9277 5.72998 54.9327 6.88246 55.4687 7.65079C56.027 8.41911 56.8086 9.8357 57.2106 10.7481C57.6125 11.6845 58.1039 13.0771 58.2825 13.8694C58.4612 14.6617 58.5952 16.3904 58.5952 17.711C58.6175 19.0316 58.4612 20.8083 58.2602 21.6727C58.0815 22.537 57.5456 24.0977 57.0542 25.1541C56.5853 26.2106 55.7143 27.6752 55.156 28.3955C54.5977 29.1158 53.6151 30.1722 52.9674 30.7485C52.3198 31.3007 51.1585 32.117 50.3546 32.5732C49.5506 33.0294 48.2107 33.6297 47.3397 33.9418C45.8881 34.446 45.2628 34.494 38.6301 34.5901C31.5508 34.7101 31.4838 34.7101 30.9925 34.1819C30.5235 33.7257 30.4788 33.4616 30.4788 30.8685C30.4565 28.4915 30.5235 27.9393 30.8585 27.5071C31.2599 26.9796 31.3273 26.9789 38.3792 26.9071L38.4068 26.9069C45.5531 26.8348 45.5531 26.8348 46.7814 26.2106C47.4514 25.8744 48.4563 25.1781 48.97 24.6499C49.5059 24.1457 50.2429 23.0652 50.6002 22.2729C50.9575 21.4806 51.3372 20.184 51.4488 19.3917C51.5605 18.5273 51.5605 17.3268 51.4488 16.3904C51.3148 15.5261 51.0022 14.3016 50.7342 13.6293C50.4439 12.981 49.8186 11.9486 49.3273 11.3964C48.836 10.7961 47.831 10.0278 47.0047 9.5956C45.5761 8.82763 45.5531 8.82728 37.6359 8.70739L37.6252 8.70723V15.262C37.6252 21.1204 37.5805 21.8407 37.2232 22.2249C36.9105 22.585 36.4416 22.6571 34.119 22.6331C31.9751 22.6331 31.3051 22.561 31.0371 22.2729C30.7468 21.9608 30.7022 20.4481 30.6798 11.8525Z" fill="white"/>
<path d="M61.7217 17.8551C61.7217 3.23293 61.744 1.74431 62.079 1.40817C62.3917 1.07203 63.4189 1.02401 69.739 1.02401C75.2774 1.02401 77.4213 1.12005 78.6049 1.38416C79.4758 1.57624 80.9721 2.15248 81.9547 2.6807C82.9373 3.20893 84.3443 4.21735 85.0812 4.93765C85.8182 5.63394 86.8455 6.93048 87.3591 7.77084C87.8951 8.61119 88.3194 9.45154 88.3194 9.61961C88.3194 9.76367 88.1631 9.95575 87.9844 10.0278C87.8058 10.0998 87.4261 10.1478 87.1581 10.1478C86.8678 10.1478 85.4386 10.46 81.2848 11.5644L80.3915 10.628C79.9002 10.1238 79.1409 9.52357 78.7165 9.28347C78.0466 8.89931 77.3319 8.82728 68.8904 8.70723V21.1925C68.8904 33.3656 68.868 33.7017 68.4437 34.1579C68.0417 34.5901 67.7067 34.6381 65.3842 34.6381C63.3966 34.6381 62.615 34.542 61.744 33.9178L61.7217 17.8551Z" fill="white"/>
<path d="M91.8479 5.65795C91.8256 2.29654 91.8479 1.86436 92.2276 1.45619C92.5626 1.09604 93.0092 1.02401 95.2648 1.02401C96.7387 1.02401 98.1233 1.14406 98.3689 1.26411C98.7933 1.4802 98.8156 1.74431 98.8156 9.78768L96.962 9.61961C95.9571 9.54758 94.3938 9.45154 91.8926 9.42753L91.8479 5.65795Z" fill="white"/>
<path d="M101.897 1.98441C101.875 1.76832 101.987 1.4802 102.165 1.31213C102.389 1.12005 103.55 1.02401 105.85 1.02401C108.217 1.02401 109.312 1.09604 109.557 1.31213C109.781 1.50421 110.607 4.04928 111.523 7.26662C112.394 10.3639 113.086 12.933 113.064 12.957C113.019 12.981 111.88 12.6929 110.54 12.3087C109.2 11.9246 107.302 11.4444 106.364 11.2523C104.711 10.8921 104.6 10.8201 104.376 10.0998C104.242 9.66763 103.639 7.74683 103.036 5.82602C102.433 3.90522 101.92 2.17649 101.897 1.98441Z" fill="white"/>
<path d="M124.073 2.58466C124.185 2.2005 124.453 1.67228 124.654 1.45619C124.967 1.07203 125.458 1.02401 128.317 1.02401C130.974 1.02401 131.711 1.09604 131.979 1.38416C132.158 1.57624 132.314 1.81634 132.314 1.93639C132.314 2.03203 131.14 5.43709 129.741 9.49618L129.723 9.54758C128.294 13.6533 127.021 17.1828 126.932 17.4229C126.753 17.759 126.642 17.783 126.128 17.5669C125.771 17.3989 124.297 16.8226 122.823 16.2704C121.126 15.5981 120.165 15.1179 120.165 14.9018C120.188 14.7338 121.036 12.0446 122.041 8.94733C123.046 5.85003 123.962 2.99283 124.073 2.58466Z" fill="white"/>
<path d="M135.195 17.8551C135.195 3.23293 135.217 1.74431 135.552 1.40817C135.865 1.07203 137.182 1.02401 146.562 1.02401C156.344 1.02401 157.237 1.07203 157.616 1.45619C157.951 1.79233 158.018 2.29654 157.996 4.74557C157.996 6.85845 157.929 7.74683 157.683 8.10698C157.371 8.56317 157.08 8.58718 142.364 8.70723V13.9894H148.684C153.463 13.9894 155.048 14.0615 155.272 14.2776C155.473 14.4937 155.54 15.5501 155.54 17.9031C155.54 20.9524 155.517 21.2165 155.093 21.4326C154.825 21.5766 152.145 21.6727 142.364 21.6727V26.9549H149.733C156.813 26.9549 157.125 26.9789 157.549 27.4351C157.951 27.8673 157.996 28.2274 157.996 30.9165C157.996 33.7497 157.974 33.9418 157.505 34.2779C157.058 34.5901 155.495 34.6381 146.607 34.6381C137.718 34.6381 136.155 34.5901 135.217 33.9178L135.195 17.8551Z" fill="white"/>
<path d="M86.9795 12.933C88.1408 12.7169 89.4137 12.5008 89.771 12.4528C90.1507 12.4048 92.4062 12.3808 94.7958 12.4288C97.297 12.4768 100.111 12.6929 101.384 12.909C102.612 13.1011 104.979 13.6053 106.632 14.0135C108.284 14.3976 110.808 15.0699 112.215 15.4541C113.622 15.8622 116.346 16.7506 118.245 17.3989C120.143 18.0712 123.068 19.1996 124.721 19.9199C126.374 20.6402 127.959 21.3845 128.25 21.5526C128.518 21.7447 128.741 22.0088 128.741 22.1529C128.741 22.2969 128.585 22.561 128.384 22.7531C128.093 23.0652 126.307 23.1133 115.274 23.1133C105.247 23.1133 102.433 23.0652 102.21 22.8251C102.054 22.6571 101.942 22.1769 101.942 21.7927C101.942 21.4085 101.696 20.5442 101.406 19.8719C101.093 19.2236 100.424 18.2392 99.8875 17.735C99.3516 17.2068 98.4806 16.5585 97.9223 16.2944C97.23 15.9583 96.426 15.8142 95.3541 15.8142C94.2821 15.8142 93.4782 15.9583 92.7859 16.2944C92.2276 16.5585 91.4013 17.0867 90.9323 17.4949C90.4187 17.9031 89.7934 18.8155 89.369 19.7038C88.7661 20.9524 88.5204 21.2405 87.8728 21.4326C87.4485 21.5526 85.6172 21.6727 83.8083 21.6727C81.9771 21.6727 80.2575 21.7687 79.9448 21.9128C79.6322 22.0568 79.3865 22.2249 79.3865 22.3449C79.3865 22.441 81.2624 24.866 83.518 27.7472C85.7959 30.6044 87.6495 33.1255 87.6495 33.3175C87.6495 33.5096 87.4485 33.8938 87.2028 34.1579C86.8008 34.5901 86.4658 34.6381 83.585 34.6381C81.5081 34.6141 80.2351 34.518 79.9225 34.326C79.6545 34.1579 77.7563 31.8289 75.6794 29.1638C73.6025 26.4747 71.8382 24.0256 71.7489 23.7615C71.6819 23.4734 71.6149 22.2969 71.5926 21.1444C71.5702 19.7038 71.6819 18.7915 71.9052 18.3113C72.0839 17.9271 72.6198 17.3989 73.0888 17.1348C73.5355 16.8947 75.2327 16.2704 76.8183 15.7182C78.4262 15.1899 80.8828 14.4216 82.2897 14.0135C83.6966 13.6053 85.8182 13.1251 86.9795 12.933Z" fill="white"/>
<path d="M93.2325 19.5838C93.5452 19.3677 94.1035 19.1036 94.4608 19.0075C94.8404 18.9115 95.4434 18.8875 95.8007 18.9595C96.1804 19.0316 96.761 19.2476 97.1183 19.4637C97.4757 19.7038 97.967 20.184 98.235 20.5442C98.6593 21.1444 98.7039 21.6246 98.7709 24.6259C98.8379 27.6031 98.7933 28.4195 98.2573 31.0366C97.8776 32.9574 97.5203 34.1579 97.297 34.35C97.0513 34.542 96.1804 34.6381 94.9074 34.6381C93.5005 34.6381 92.7412 34.542 92.4062 34.2779C91.8926 33.9178 91.8926 33.8938 91.8926 27.6272C91.8926 22.0328 91.9373 21.2405 92.2946 20.6642C92.4956 20.3041 92.9199 19.8239 93.2325 19.5838Z" fill="white"/>
<path d="M110.897 30.0762C110.272 28.0353 109.758 26.2106 109.758 26.0665C109.758 25.8264 111.232 25.7544 116.346 25.7544C120.59 25.7544 122.934 25.8504 122.934 25.9945C122.934 26.1385 122.421 27.9393 121.818 30.0282C121.193 32.093 120.5 33.9898 120.299 34.2299C119.964 34.5901 119.473 34.6621 116.346 34.6621C113.198 34.6621 112.729 34.5901 112.394 34.2299C112.193 33.9898 111.523 32.117 110.897 30.0762Z" fill="white"/>
<path d="M1.0449 12.4768C0.95557 3.16091 0.977902 2.12847 1.31289 1.60025C1.6702 1.04802 1.75953 1.02401 4.6404 1.02401C7.11928 1.02401 7.65525 1.09604 7.99024 1.45619C8.34755 1.84035 8.39222 2.56065 8.36988 11.7085C8.36988 19.6798 8.43688 21.7927 8.68254 22.7531C8.88353 23.4254 9.39717 24.4338 9.86615 25.0101C10.3351 25.6103 11.2061 26.3306 11.8314 26.6427C12.613 27.0269 13.35 27.195 14.2879 27.195C15.0919 27.195 15.9852 27.0029 16.5212 26.7628C17.0125 26.5227 17.8388 25.8984 18.3747 25.3702C19 24.77 19.4914 24.0016 19.7817 23.1853C20.1837 22.0088 20.206 21.1925 20.206 11.9006C20.206 2.72872 20.2507 1.81634 20.608 1.43218C20.9206 1.07203 21.3896 1 23.7792 1C26.1687 1 26.6377 1.07203 26.9727 1.43218C27.33 1.84035 27.3523 2.60867 27.2407 23.2333L26.6824 24.914C26.3697 25.8504 25.6104 27.3871 25.0074 28.3715C24.3821 29.3559 23.3548 30.6524 22.7072 31.2527C22.0596 31.8529 21.0546 32.6453 20.474 33.0294C19.8933 33.3896 18.7321 33.9178 17.8611 34.2059C16.7222 34.5901 15.7172 34.7341 14.1763 34.7341C12.613 34.7341 11.6527 34.6141 10.4915 34.2059C9.62049 33.9178 8.28056 33.2935 7.49893 32.7893C6.7173 32.2851 5.46669 31.1566 4.70739 30.2923C3.97043 29.4279 3.03247 28.0353 2.63049 27.171C2.22851 26.3306 1.7372 24.986 1.53621 24.1937C1.20122 22.9452 1.13423 21.3125 1.0449 12.4768Z" stroke="white" stroke-width="0.910001"/>
<path d="M30.6798 11.8525C30.6798 2.63268 30.7022 1.74431 31.0595 1.38416C31.3945 1.02401 32.1984 1 45.9998 1.14406L47.7864 1.81634C48.769 2.2005 50.1312 2.84877 50.8012 3.25695C51.4712 3.68913 52.5878 4.52948 53.2578 5.12973C53.9277 5.72998 54.9327 6.88246 55.4687 7.65079C56.027 8.41911 56.8086 9.8357 57.2106 10.7481C57.6125 11.6845 58.1039 13.0771 58.2825 13.8694C58.4612 14.6617 58.5952 16.3904 58.5952 17.711C58.6175 19.0316 58.4612 20.8083 58.2602 21.6727C58.0815 22.537 57.5456 24.0977 57.0542 25.1541C56.5853 26.2106 55.7143 27.6752 55.156 28.3955C54.5977 29.1158 53.6151 30.1722 52.9674 30.7485C52.3198 31.3007 51.1585 32.117 50.3546 32.5732C49.5506 33.0294 48.2107 33.6297 47.3397 33.9418C45.8881 34.446 45.2628 34.494 38.6301 34.5901C31.5508 34.7101 31.4838 34.7101 30.9925 34.1819C30.5235 33.7257 30.4788 33.4616 30.4788 30.8685C30.4565 28.4915 30.5235 27.9393 30.8585 27.5071C31.2599 26.9796 31.3273 26.9789 38.3792 26.9071L38.4068 26.9069C45.5531 26.8348 45.5531 26.8348 46.7814 26.2106C47.4514 25.8744 48.4563 25.1781 48.97 24.6499C49.5059 24.1457 50.2429 23.0652 50.6002 22.2729C50.9575 21.4806 51.3372 20.184 51.4488 19.3917C51.5605 18.5273 51.5605 17.3268 51.4488 16.3904C51.3148 15.5261 51.0022 14.3016 50.7342 13.6293C50.4439 12.981 49.8186 11.9486 49.3273 11.3964C48.836 10.7961 47.831 10.0278 47.0047 9.5956C45.5761 8.82763 45.5531 8.82728 37.6359 8.70739L37.6252 8.70723V15.262C37.6252 21.1204 37.5805 21.8407 37.2232 22.2249C36.9105 22.585 36.4416 22.6571 34.119 22.6331C31.9751 22.6331 31.3051 22.561 31.0371 22.2729C30.7468 21.9608 30.7022 20.4481 30.6798 11.8525Z" stroke="white" stroke-width="0.910001"/>
<path d="M61.7217 17.8551C61.7217 3.23293 61.744 1.74431 62.079 1.40817C62.3917 1.07203 63.4189 1.02401 69.739 1.02401C75.2774 1.02401 77.4213 1.12005 78.6049 1.38416C79.4758 1.57624 80.9721 2.15248 81.9547 2.6807C82.9373 3.20893 84.3443 4.21735 85.0812 4.93765C85.8182 5.63394 86.8455 6.93048 87.3591 7.77084C87.8951 8.61119 88.3194 9.45154 88.3194 9.61961C88.3194 9.76367 88.1631 9.95575 87.9844 10.0278C87.8058 10.0998 87.4261 10.1478 87.1581 10.1478C86.8678 10.1478 85.4386 10.46 81.2848 11.5644L80.3915 10.628C79.9002 10.1238 79.1409 9.52357 78.7165 9.28347C78.0466 8.89931 77.3319 8.82728 68.8904 8.70723V21.1925C68.8904 33.3656 68.868 33.7017 68.4437 34.1579C68.0417 34.5901 67.7067 34.6381 65.3842 34.6381C63.3966 34.6381 62.615 34.542 61.744 33.9178L61.7217 17.8551Z" stroke="white" stroke-width="0.910001"/>
<path d="M91.8479 5.65795C91.8256 2.29654 91.8479 1.86436 92.2276 1.45619C92.5626 1.09604 93.0092 1.02401 95.2648 1.02401C96.7387 1.02401 98.1233 1.14406 98.3689 1.26411C98.7933 1.4802 98.8156 1.74431 98.8156 9.78768L96.962 9.61961C95.9571 9.54758 94.3938 9.45154 91.8926 9.42753L91.8479 5.65795Z" stroke="white" stroke-width="0.910001"/>
<path d="M101.897 1.98441C101.875 1.76832 101.987 1.4802 102.165 1.31213C102.389 1.12005 103.55 1.02401 105.85 1.02401C108.217 1.02401 109.312 1.09604 109.557 1.31213C109.781 1.50421 110.607 4.04928 111.523 7.26662C112.394 10.3639 113.086 12.933 113.064 12.957C113.019 12.981 111.88 12.6929 110.54 12.3087C109.2 11.9246 107.302 11.4444 106.364 11.2523C104.711 10.8921 104.6 10.8201 104.376 10.0998C104.242 9.66763 103.639 7.74683 103.036 5.82602C102.433 3.90522 101.92 2.17649 101.897 1.98441Z" stroke="white" stroke-width="0.910001"/>
<path d="M124.073 2.58466C124.185 2.2005 124.453 1.67228 124.654 1.45619C124.967 1.07203 125.458 1.02401 128.317 1.02401C130.974 1.02401 131.711 1.09604 131.979 1.38416C132.158 1.57624 132.314 1.81634 132.314 1.93639C132.314 2.03203 131.14 5.43709 129.741 9.49618L129.723 9.54758C128.294 13.6533 127.021 17.1828 126.932 17.4229C126.753 17.759 126.642 17.783 126.128 17.5669C125.771 17.3989 124.297 16.8226 122.823 16.2704C121.126 15.5981 120.165 15.1179 120.165 14.9018C120.188 14.7338 121.036 12.0446 122.041 8.94733C123.046 5.85003 123.962 2.99283 124.073 2.58466Z" stroke="white" stroke-width="0.910001"/>
<path d="M135.195 17.8551C135.195 3.23293 135.217 1.74431 135.552 1.40817C135.865 1.07203 137.182 1.02401 146.562 1.02401C156.344 1.02401 157.237 1.07203 157.616 1.45619C157.951 1.79233 158.018 2.29654 157.996 4.74557C157.996 6.85845 157.929 7.74683 157.683 8.10698C157.371 8.56317 157.08 8.58718 142.364 8.70723V13.9894H148.684C153.463 13.9894 155.048 14.0615 155.272 14.2776C155.473 14.4937 155.54 15.5501 155.54 17.9031C155.54 20.9524 155.517 21.2165 155.093 21.4326C154.825 21.5766 152.145 21.6727 142.364 21.6727V26.9549H149.733C156.813 26.9549 157.125 26.9789 157.549 27.4351C157.951 27.8673 157.996 28.2274 157.996 30.9165C157.996 33.7497 157.974 33.9418 157.505 34.2779C157.058 34.5901 155.495 34.6381 146.607 34.6381C137.718 34.6381 136.155 34.5901 135.217 33.9178L135.195 17.8551Z" stroke="white" stroke-width="0.910001"/>
<path d="M86.9795 12.933C88.1408 12.7169 89.4137 12.5008 89.771 12.4528C90.1507 12.4048 92.4062 12.3808 94.7958 12.4288C97.297 12.4768 100.111 12.6929 101.384 12.909C102.612 13.1011 104.979 13.6053 106.632 14.0135C108.284 14.3976 110.808 15.0699 112.215 15.4541C113.622 15.8622 116.346 16.7506 118.245 17.3989C120.143 18.0712 123.068 19.1996 124.721 19.9199C126.374 20.6402 127.959 21.3845 128.25 21.5526C128.518 21.7447 128.741 22.0088 128.741 22.1529C128.741 22.2969 128.585 22.561 128.384 22.7531C128.093 23.0652 126.307 23.1133 115.274 23.1133C105.247 23.1133 102.433 23.0652 102.21 22.8251C102.054 22.6571 101.942 22.1769 101.942 21.7927C101.942 21.4085 101.696 20.5442 101.406 19.8719C101.093 19.2236 100.424 18.2392 99.8875 17.735C99.3516 17.2068 98.4806 16.5585 97.9223 16.2944C97.23 15.9583 96.426 15.8142 95.3541 15.8142C94.2821 15.8142 93.4782 15.9583 92.7859 16.2944C92.2276 16.5585 91.4013 17.0867 90.9323 17.4949C90.4187 17.9031 89.7934 18.8155 89.369 19.7038C88.7661 20.9524 88.5204 21.2405 87.8728 21.4326C87.4485 21.5526 85.6172 21.6727 83.8083 21.6727C81.9771 21.6727 80.2575 21.7687 79.9448 21.9128C79.6322 22.0568 79.3865 22.2249 79.3865 22.3449C79.3865 22.441 81.2624 24.866 83.518 27.7472C85.7959 30.6044 87.6495 33.1255 87.6495 33.3175C87.6495 33.5096 87.4485 33.8938 87.2028 34.1579C86.8008 34.5901 86.4658 34.6381 83.585 34.6381C81.5081 34.6141 80.2351 34.518 79.9225 34.326C79.6545 34.1579 77.7563 31.8289 75.6794 29.1638C73.6025 26.4747 71.8382 24.0256 71.7489 23.7615C71.6819 23.4734 71.6149 22.2969 71.5926 21.1444C71.5702 19.7038 71.6819 18.7915 71.9052 18.3113C72.0839 17.9271 72.6198 17.3989 73.0888 17.1348C73.5355 16.8947 75.2327 16.2704 76.8183 15.7182C78.4262 15.1899 80.8828 14.4216 82.2897 14.0135C83.6966 13.6053 85.8182 13.1251 86.9795 12.933Z" stroke="white" stroke-width="0.910001"/>
<path d="M93.2325 19.5838C93.5452 19.3677 94.1035 19.1036 94.4608 19.0075C94.8404 18.9115 95.4434 18.8875 95.8007 18.9595C96.1804 19.0316 96.761 19.2476 97.1183 19.4637C97.4757 19.7038 97.967 20.184 98.235 20.5442C98.6593 21.1444 98.7039 21.6246 98.7709 24.6259C98.8379 27.6031 98.7933 28.4195 98.2573 31.0366C97.8776 32.9574 97.5203 34.1579 97.297 34.35C97.0513 34.542 96.1804 34.6381 94.9074 34.6381C93.5005 34.6381 92.7412 34.542 92.4062 34.2779C91.8926 33.9178 91.8926 33.8938 91.8926 27.6272C91.8926 22.0328 91.9373 21.2405 92.2946 20.6642C92.4956 20.3041 92.9199 19.8239 93.2325 19.5838Z" stroke="white" stroke-width="0.910001"/>
<path d="M110.897 30.0762C110.272 28.0353 109.758 26.2106 109.758 26.0665C109.758 25.8264 111.232 25.7544 116.346 25.7544C120.59 25.7544 122.934 25.8504 122.934 25.9945C122.934 26.1385 122.421 27.9393 121.818 30.0282C121.193 32.093 120.5 33.9898 120.299 34.2299C119.964 34.5901 119.473 34.6621 116.346 34.6621C113.198 34.6621 112.729 34.5901 112.394 34.2299C112.193 33.9898 111.523 32.117 110.897 30.0762Z" stroke="white" stroke-width="0.910001"/>
<path d="M61.722 17.8552C61.722 3.23309 61.7444 1.74447 62.0793 1.40833C62.392 1.07219 63.4193 1.02417 69.7393 1.02417C75.2777 1.02417 77.4216 1.12021 78.6052 1.38432C79.4762 1.5764 80.9724 2.15264 81.9551 2.68086C82.9377 3.20908 84.3446 4.21751 85.0816 4.93781C85.8185 5.6341 86.8458 6.93064 87.3595 7.771C87.8955 8.61135 88.3198 9.4517 88.3198 9.61977C88.3198 9.76383 88.1634 9.95591 87.9848 10.0279C87.8061 10.1 87.4265 10.148 87.1585 10.148C86.8682 10.148 85.4389 10.4601 81.2851 11.5646L80.3918 10.6282C79.9005 10.124 79.1412 9.52373 78.7169 9.28363C78.0469 8.89947 77.3323 8.82744 68.8907 8.70739V21.1926C68.8907 33.3657 68.8684 33.7019 68.444 34.1581C68.0421 34.5902 67.7071 34.6383 65.3845 34.6383C63.3969 34.6383 62.6153 34.5422 61.7444 33.9179L61.722 17.8552Z" fill="white"/>
<path d="M91.8483 5.65811C91.8259 2.2967 91.8483 1.86452 92.2279 1.45635C92.5629 1.0962 93.0095 1.02417 95.2651 1.02417C96.739 1.02417 98.1236 1.14422 98.3693 1.26427C98.7936 1.48036 98.8159 1.74447 98.8159 9.78784L96.9624 9.61977C95.9574 9.54774 94.3941 9.4517 91.8929 9.42769L91.8483 5.65811Z" fill="white"/>
<path d="M86.9798 12.9332C88.1411 12.7171 89.414 12.501 89.7714 12.453C90.151 12.4049 92.4066 12.3809 94.7961 12.4289C97.2973 12.477 100.111 12.6931 101.384 12.9091C102.612 13.1012 104.98 13.6054 106.632 14.0136C108.285 14.3978 110.808 15.0701 112.215 15.4542C113.622 15.8624 116.347 16.7508 118.245 17.399C120.143 18.0713 123.069 19.1998 124.721 19.9201C126.374 20.6404 127.96 21.3847 128.25 21.5528C128.518 21.7448 128.741 22.009 128.741 22.153C128.741 22.2971 128.585 22.5612 128.384 22.7533C128.094 23.0654 126.307 23.1134 115.275 23.1134C105.248 23.1134 102.434 23.0654 102.21 22.8253C102.054 22.6572 101.942 22.177 101.942 21.7929C101.942 21.4087 101.697 20.5443 101.406 19.8721C101.094 19.2238 100.424 18.2394 99.8879 17.7352C99.3519 17.2069 98.481 16.5587 97.9226 16.2946C97.2303 15.9584 96.4264 15.8144 95.3544 15.8144C94.2825 15.8144 93.4785 15.9584 92.7862 16.2946C92.2279 16.5587 91.4016 17.0869 90.9326 17.4951C90.419 17.9032 89.7937 18.8156 89.3694 19.704C88.7664 20.9525 88.5208 21.2406 87.8731 21.4327C87.4488 21.5528 85.6176 21.6728 83.8086 21.6728C81.9774 21.6728 80.2578 21.7689 79.9452 21.9129C79.6325 22.057 79.3869 22.2251 79.3869 22.3451C79.3869 22.4411 81.2628 24.8662 83.5183 27.7474C85.7962 30.6046 87.6498 33.1256 87.6498 33.3177C87.6498 33.5098 87.4488 33.8939 87.2031 34.1581C86.8012 34.5902 86.4662 34.6383 83.5853 34.6383C81.5084 34.6142 80.2355 34.5182 79.9228 34.3261C79.6548 34.1581 77.7566 31.8291 75.6797 29.164C73.6028 26.4748 71.8385 24.0258 71.7492 23.7617C71.6822 23.4736 71.6152 22.2971 71.5929 21.1446C71.5706 19.704 71.6822 18.7916 71.9055 18.3114C72.0842 17.9272 72.6202 17.399 73.0892 17.1349C73.5358 16.8948 75.2331 16.2706 76.8186 15.7183C78.4266 15.1901 80.8831 14.4218 82.2901 14.0136C83.697 13.6054 85.8185 13.1252 86.9798 12.9332Z" fill="white"/>
<path d="M93.2329 19.5839C93.5455 19.3679 94.1038 19.1037 94.4611 19.0077C94.8408 18.9117 95.4438 18.8877 95.8011 18.9597C96.1807 19.0317 96.7614 19.2478 97.1187 19.4639C97.476 19.704 97.9673 20.1842 98.2353 20.5443C98.6596 21.1446 98.7043 21.6248 98.7713 24.6261C98.8383 27.6033 98.7936 28.4196 98.2576 31.0367C97.878 32.9575 97.5207 34.1581 97.2973 34.3501C97.0517 34.5422 96.1807 34.6383 94.9078 34.6383C93.5009 34.6383 92.7416 34.5422 92.4066 34.2781C91.8929 33.9179 91.8929 33.8939 91.8929 27.6273C91.8929 22.033 91.9376 21.2406 92.2949 20.6644C92.4959 20.3042 92.9202 19.824 93.2329 19.5839Z" fill="white"/>
<path d="M110.898 30.0763C110.272 28.0355 109.759 26.2107 109.759 26.0667C109.759 25.8266 111.233 25.7545 116.347 25.7545C120.59 25.7545 122.935 25.8506 122.935 25.9946C122.935 26.1387 122.421 27.9394 121.818 30.0283C121.193 32.0932 120.501 33.99 120.3 34.2301C119.965 34.5902 119.473 34.6623 116.347 34.6623C113.198 34.6623 112.729 34.5902 112.394 34.2301C112.193 33.99 111.523 32.1172 110.898 30.0763Z" fill="white"/>
<path d="M52.9678 30.7486C53.6154 30.1724 54.598 29.1159 55.1563 28.3956C55.7146 27.6753 56.5856 26.2107 57.0546 25.1543C57.5459 24.0978 58.0819 22.5372 58.2605 21.6728C58.4615 20.8085 58.6178 19.0317 58.5955 17.7112C58.5955 16.3906 58.4615 14.6619 58.2829 13.8696C58.1042 13.0772 57.6129 11.6846 57.2109 10.7482C56.8089 9.83586 56.0273 8.41927 55.469 7.65095C54.933 6.88262 53.9281 5.73014 53.2581 5.12989M111.523 7.26678C112.394 10.3641 113.086 12.9332 113.064 12.9572C113.019 12.9812 111.88 12.6931 110.54 12.3089C109.2 11.9247 107.302 11.4445 106.364 11.2525C104.712 10.8923 104.6 10.8203 104.377 10.1C104.243 9.66779 103.64 7.74699 103.037 5.82618C102.434 3.90538 101.92 2.17665 101.898 1.98457C101.875 1.76848 101.987 1.48036 102.166 1.31229C102.389 1.12021 103.55 1.02417 105.851 1.02417M129.724 9.54774C128.295 13.6535 127.022 17.1829 126.932 17.423C126.754 17.7592 126.642 17.7832 126.128 17.5671C125.771 17.399 124.297 16.8228 122.823 16.2706C121.126 15.5983 120.166 15.1181 120.166 14.902C120.188 14.7339 121.037 12.0448 122.042 8.94749C123.046 5.85019 123.962 2.99299 124.074 2.58482C124.185 2.20066 124.453 1.67244 124.654 1.45635C124.967 1.07219 125.458 1.02417 128.317 1.02417C130.974 1.02417 131.711 1.0962 131.979 1.38432M62.0793 1.40833C61.7444 1.74447 61.722 3.23309 61.722 17.8552L61.7444 33.9179C62.6153 34.5422 63.3969 34.6383 65.3845 34.6383C67.7071 34.6383 68.0421 34.5902 68.444 34.1581C68.8684 33.7019 68.8907 33.3657 68.8907 21.1926V8.70739C77.3323 8.82744 78.0469 8.89947 78.7169 9.28363C79.1412 9.52373 79.9005 10.124 80.3918 10.6282L81.2851 11.5646C85.4389 10.4601 86.8682 10.148 87.1585 10.148C87.4265 10.148 87.8061 10.1 87.9848 10.0279C88.1634 9.95591 88.3198 9.76383 88.3198 9.61977C88.3198 9.4517 87.8954 8.61135 87.3595 7.771C86.8458 6.93064 85.8185 5.6341 85.0816 4.93781C84.3446 4.21751 82.9377 3.20909 81.9551 2.68086C80.9724 2.15264 79.4762 1.5764 78.6052 1.38432C77.4216 1.12021 75.2777 1.02417 69.7393 1.02417C63.4193 1.02417 62.392 1.07219 62.0793 1.40833ZM92.2279 1.45635C91.8483 1.86452 91.8259 2.2967 91.8483 5.65811L91.8929 9.42769C94.3941 9.4517 95.9574 9.54774 96.9624 9.61977L98.8159 9.78784C98.8159 1.74447 98.7936 1.48036 98.3693 1.26427C98.1236 1.14422 96.739 1.02417 95.2651 1.02417C93.0095 1.02417 92.5629 1.0962 92.2279 1.45635ZM89.7714 12.453C89.414 12.501 88.1411 12.7171 86.9798 12.9332C85.8185 13.1252 83.697 13.6054 82.2901 14.0136C80.8831 14.4218 78.4266 15.1901 76.8186 15.7183C75.2331 16.2706 73.5358 16.8948 73.0892 17.1349C72.6202 17.399 72.0842 17.9272 71.9055 18.3114C71.6822 18.7916 71.5706 19.704 71.5929 21.1446C71.6152 22.2971 71.6822 23.4736 71.7492 23.7617C71.8385 24.0258 73.6028 26.4748 75.6797 29.164C77.7566 31.8291 79.6548 34.1581 79.9228 34.3261C80.2355 34.5182 81.5084 34.6142 83.5853 34.6383C86.4662 34.6383 86.8012 34.5902 87.2031 34.1581C87.4488 33.8939 87.6498 33.5098 87.6498 33.3177C87.6498 33.1256 85.7962 30.6046 83.5183 27.7474C81.2628 24.8662 79.3869 22.4411 79.3869 22.3451C79.3869 22.2251 79.6325 22.057 79.9452 21.9129C80.2578 21.7689 81.9774 21.6728 83.8086 21.6728C85.6176 21.6728 87.4488 21.5528 87.8731 21.4327C88.5208 21.2406 88.7664 20.9525 89.3694 19.704C89.7937 18.8156 90.419 17.9032 90.9326 17.4951C91.4016 17.0869 92.2279 16.5587 92.7862 16.2946C93.4785 15.9584 94.2825 15.8144 95.3544 15.8144C96.4264 15.8144 97.2303 15.9584 97.9226 16.2946C98.481 16.5587 99.3519 17.2069 99.8879 17.7352C100.424 18.2394 101.094 19.2238 101.406 19.8721C101.697 20.5443 101.942 21.4087 101.942 21.7929C101.942 22.177 102.054 22.6572 102.21 22.8253C102.434 23.0654 105.248 23.1134 115.275 23.1134C126.307 23.1134 128.094 23.0654 128.384 22.7533C128.585 22.5612 128.741 22.2971 128.741 22.153C128.741 22.009 128.518 21.7448 128.25 21.5528C127.96 21.3847 126.374 20.6404 124.721 19.9201C123.069 19.1998 120.143 18.0713 118.245 17.399C116.347 16.7508 113.622 15.8624 112.215 15.4542C110.808 15.0701 108.285 14.3978 106.632 14.0136C104.98 13.6054 102.612 13.1012 101.384 12.9091C100.111 12.6931 97.2973 12.477 94.7961 12.4289C92.4066 12.3809 90.151 12.4049 89.7714 12.453ZM94.4611 19.0077C94.1038 19.1037 93.5455 19.3679 93.2329 19.5839C92.9202 19.824 92.4959 20.3042 92.2949 20.6644C91.9376 21.2406 91.8929 22.033 91.8929 27.6273C91.8929 33.8939 91.8929 33.918 92.4066 34.2781C92.7416 34.5422 93.5009 34.6383 94.9078 34.6383C96.1807 34.6383 97.0517 34.5422 97.2973 34.3501C97.5207 34.158 97.878 32.9575 98.2576 31.0367C98.7936 28.4196 98.8383 27.6033 98.7713 24.6261C98.7043 21.6248 98.6596 21.1446 98.2353 20.5443C97.9673 20.1842 97.476 19.704 97.1187 19.4639C96.7614 19.2478 96.1807 19.0317 95.8011 18.9597C95.4438 18.8877 94.8408 18.9117 94.4611 19.0077ZM109.759 26.0667C109.759 26.2107 110.272 28.0355 110.898 30.0763C111.523 32.1172 112.193 33.99 112.394 34.2301C112.729 34.5902 113.198 34.6623 116.347 34.6623C119.473 34.6623 119.965 34.5902 120.3 34.2301C120.501 33.99 121.193 32.0932 121.818 30.0283C122.421 27.9394 122.935 26.1387 122.935 25.9946C122.935 25.8506 120.59 25.7545 116.347 25.7545C111.233 25.7545 109.759 25.8266 109.759 26.0667Z" stroke="white" stroke-width="0.910001"/>
</svg>
